{
    "accessors" : [
        {
            "bufferView" : 0,
            "componentType" : 5123,
            "count" : 1812,
            "max" : [
                529
            ],
            "min" : [
                0
            ],
            "type" : "SCALAR"
        },
        {
            "bufferView" : 1,
            "componentType" : 5126,
            "count" : 530,
            "max" : [
                0.18749800324440002,
                4.105310440063477,
                0.9476009011268616
            ],
            "min" : [
                -8.217536926269531,
                -4.105310440063477,
                -0.18749800324440002
            ],
            "type" : "VEC3"
        },
        {
            "bufferView" : 2,
            "componentType" : 5126,
            "count" : 530,
            "max" : [
                0.9317606091499329,
                1.0,
                0.9975280165672302
            ],
            "min" : [
                -0.9317606091499329,
                -1.0,
                -0.9975280165672302
            ],
            "type" : "VEC3"
        },
        {
            "bufferView" : 3,
            "componentType" : 5126,
            "count" : 530,
            "max" : [
                0.9753126502037048,
                0.99643874168396
            ],
            "min" : [
                0.0035612445790320635,
                0.003561258316040039
            ],
            "type" : "VEC2"
        },
        {
            "bufferView" : 4,
            "componentType" : 5123,
            "count" : 3618,
            "max" : [
                1311
            ],
            "min" : [
                0
            ],
            "type" : "SCALAR"
        },
        {
            "bufferView" : 5,
            "componentType" : 5126,
            "count" : 1312,
            "max" : [
                4.112226486206055,
                7.13076639175415,
                0.35905057191848755
            ],
            "min" : [
                -4.112226486206055,
                -4.112226486206055,
                -1.4016207456588745
            ],
            "type" : "VEC3"
        },
        {
            "bufferView" : 6,
            "componentType" : 5126,
            "count" : 1312,
            "max" : [
                1.0,
                1.0,
                1.0
            ],
            "min" : [
                -1.0,
                -1.0,
                -1.0
            ],
            "type" : "VEC3"
        },
        {
            "bufferView" : 7,
            "componentType" : 5126,
            "count" : 1312,
            "max" : [
                0.99662184715271,
                0.9815050363540649
            ],
            "min" : [
                0.0033781803213059902,
                0.003378152847290039
            ],
            "type" : "VEC2"
        },
        {
            "bufferView" : 8,
            "componentType" : 5123,
            "count" : 31680,
            "max" : [
                6335
            ],
            "min" : [
                0
            ],
            "type" : "SCALAR"
        },
        {
            "bufferView" : 9,
            "componentType" : 5126,
            "count" : 6336,
            "max" : [
                0.03255057707428932,
                0.035659801214933395,
                -0.08990415185689926
            ],
            "min" : [
                -0.030188975855708122,
                -0.032250650227069855,
                -1.763493537902832
            ],
            "type" : "VEC3"
        },
        {
            "bufferView" : 10,
            "componentType" : 5126,
            "count" : 6336,
            "max" : [
                0.9980773329734802,
                0.999847412109375,
                1.0
            ],
            "min" : [
                -0.9980773329734802,
                -0.999847412109375,
                -1.0
            ],
            "type" : "VEC3"
        },
        {
            "bufferView" : 11,
            "componentType" : 5126,
            "count" : 6336,
            "max" : [
                0.9840192198753357,
                0.9585230350494385
            ],
            "min" : [
                0.5364514589309692,
                0.058955371379852295
            ],
            "type" : "VEC2"
        },
        {
            "bufferView" : 12,
            "componentType" : 5121,
            "count" : 570,
            "max" : [
                205
            ],
            "min" : [
                0
            ],
            "type" : "SCALAR"
        },
        {
            "bufferView" : 13,
            "componentType" : 5126,
            "count" : 206,
            "max" : [
                2.995483875274658,
                0.5733242034912109,
                0.11193236708641052
            ],
            "min" : [
                -2.6935970783233643,
                -0.5733242034912109,
                -0.0
            ],
            "type" : "VEC3"
        },
        {
            "bufferView" : 14,
            "componentType" : 5126,
            "count" : 206,
            "max" : [
                0.4921414852142334,
                1.0,
                1.0
            ],
            "min" : [
                -1.0,
                -1.0,
                -1.0
            ],
            "type" : "VEC3"
        },
        {
            "bufferView" : 15,
            "componentType" : 5126,
            "count" : 206,
            "max" : [
                0.9987117052078247,
                0.9880837202072144
            ],
            "min" : [
                0.001288281986489892,
                0.001288294792175293
            ],
            "type" : "VEC2"
        }
    ],
    "asset" : {
        "generator" : "Khronos Blender glTF 2.0 exporter",
        "version" : "2.0"
    },
    "bufferViews" : [
        {
            "buffer" : 0,
            "byteLength" : 3624,
            "byteOffset" : 0,
            "target" : 34963
        },
        {
            "buffer" : 0,
            "byteLength" : 6360,
            "byteOffset" : 3624,
            "target" : 34962
        },
        {
            "buffer" : 0,
            "byteLength" : 6360,
            "byteOffset" : 9984,
            "target" : 34962
        },
        {
            "buffer" : 0,
            "byteLength" : 4240,
            "byteOffset" : 16344,
            "target" : 34962
        },
        {
            "buffer" : 0,
            "byteLength" : 7236,
            "byteOffset" : 20584,
            "target" : 34963
        },
        {
            "buffer" : 0,
            "byteLength" : 15744,
            "byteOffset" : 27820,
            "target" : 34962
        },
        {
            "buffer" : 0,
            "byteLength" : 15744,
            "byteOffset" : 43564,
            "target" : 34962
        },
        {
            "buffer" : 0,
            "byteLength" : 10496,
            "byteOffset" : 59308,
            "target" : 34962
        },
        {
            "buffer" : 0,
            "byteLength" : 63360,
            "byteOffset" : 69804,
            "target" : 34963
        },
        {
            "buffer" : 0,
            "byteLength" : 76032,
            "byteOffset" : 133164,
            "target" : 34962
        },
        {
            "buffer" : 0,
            "byteLength" : 76032,
            "byteOffset" : 209196,
            "target" : 34962
        },
        {
            "buffer" : 0,
            "byteLength" : 50688,
            "byteOffset" : 285228,
            "target" : 34962
        },
        {
            "buffer" : 0,
            "byteLength" : 570,
            "byteOffset" : 335916,
            "target" : 34963
        },
        {
            "buffer" : 0,
            "byteLength" : 2472,
            "byteOffset" : 336488,
            "target" : 34962
        },
        {
            "buffer" : 0,
            "byteLength" : 2472,
            "byteOffset" : 338960,
            "target" : 34962
        },
        {
            "buffer" : 0,
            "byteLength" : 1648,
            "byteOffset" : 341432,
            "target" : 34962
        }
    ],
    "buffers" : [
        {
            "byteLength" : 343080,
            "uri" : "compass.bin"
        }
    ],
    "images" : [
        {
            "name" : "Mat_occlusionRoughnessMetallic",
            "uri" : "Mat_occlusionRoughnessMetallic.png"
        },
        {
            "name" : "Mat_normal",
            "uri" : "Mat_normal.png"
        },
        {
            "name" : "Mat_baseColor",
            "uri" : "Mat_baseColor.png"
        },
        {
            "name" : "main_occlusionRoughnessMetallic",
            "uri" : "main_occlusionRoughnessMetallic.png"
        },
        {
            "name" : "main_normal",
            "uri" : "main_normal.png"
        },
        {
            "name" : "main_baseColor",
            "uri" : "main_baseColor.png"
        },
        {
            "name" : "cup_occlusionRoughnessMetallic",
            "uri" : "cup_occlusionRoughnessMetallic.png"
        },
        {
            "name" : "cup_normal",
            "uri" : "cup_normal.png"
        },
        {
            "name" : "cup_emissive",
            "uri" : "cup_emissive.png"
        },
        {
            "name" : "cup_baseColor",
            "uri" : "cup_baseColor.png"
        },
        {
            "name" : "arrow_occlusionRoughnessMetallic",
            "uri" : "arrow_occlusionRoughnessMetallic.png"
        },
        {
            "name" : "arrow_normal",
            "uri" : "arrow_normal.png"
        },
        {
            "name" : "arrow_baseColor",
            "uri" : "arrow_baseColor.png"
        }
    ],
    "materials" : [
        {
            "name" : "chain",
            "normalTexture" : {
                "index" : 1
            },
            "occlusionTexture" : {
                "index" : 0
            },
            "pbrMetallicRoughness" : {
                "baseColorTexture" : {
                    "index" : 2
                },
                "metallicRoughnessTexture" : {
                    "index" : 0
                }
            }
        },
        {
            "name" : "compass",
            "normalTexture" : {
                "index" : 4
            },
            "occlusionTexture" : {
                "index" : 3
            },
            "pbrMetallicRoughness" : {
                "baseColorTexture" : {
                    "index" : 5
                },
                "metallicRoughnessTexture" : {
                    "index" : 3
                }
            }
        },
        {
            "emissiveFactor" : [
                1.0,
                1.0,
                1.0
            ],
            "emissiveTexture" : {
                "index" : 8
            },
            "name" : "cup",
            "normalTexture" : {
                "index" : 7
            },
            "occlusionTexture" : {
                "index" : 6
            },
            "pbrMetallicRoughness" : {
                "baseColorTexture" : {
                    "index" : 9
                },
                "metallicRoughnessTexture" : {
                    "index" : 6
                }
            }
        },
        {
            "name" : "arrow",
            "normalTexture" : {
                "index" : 11
            },
            "occlusionTexture" : {
                "index" : 10
            },
            "pbrMetallicRoughness" : {
                "baseColorTexture" : {
                    "index" : 12
                },
                "metallicRoughnessTexture" : {
                    "index" : 10
                }
            }
        }
    ],
    "meshes" : [
        {
            "name" : "Untitled.002",
            "primitives" : [
                {
                    "attributes" : {
                        "NORMAL" : 2,
                        "POSITION" : 1,
                        "TEXCOORD_0" : 3
                    },
                    "indices" : 0,
                    "material" : 2
                }
            ]
        },
        {
            "name" : "Untitled",
            "primitives" : [
                {
                    "attributes" : {
                        "NORMAL" : 6,
                        "POSITION" : 5,
                        "TEXCOORD_0" : 7
                    },
                    "indices" : 4,
                    "material" : 1
                }
            ]
        },
        {
            "name" : "Untitled.003",
            "primitives" : [
                {
                    "attributes" : {
                        "NORMAL" : 10,
                        "POSITION" : 9,
                        "TEXCOORD_0" : 11
                    },
                    "indices" : 8,
                    "material" : 0
                }
            ]
        },
        {
            "name" : "Untitled.001",
            "primitives" : [
                {
                    "attributes" : {
                        "NORMAL" : 14,
                        "POSITION" : 13,
                        "TEXCOORD_0" : 15
                    },
                    "indices" : 12,
                    "material" : 3
                }
            ]
        }
    ],
    "nodes" : [
        {
            "mesh" : 3,
            "name" : "arrow",
            "translation" : [
                0.0,
                0.0,
                0.5369598865509033
            ]
        },
        {
            "mesh" : 2,
            "name" : "chain",
            "rotation" : [
                0.49820029735565186,
                -0.5007573366165161,
                0.4992416203022003,
                0.5017933249473572
            ],
            "scale" : [
                9.207771301269531,
                9.207771301269531,
                9.207771301269531
            ],
            "translation" : [
                -0.000408668362069875,
                5.916495323181152,
                8.607847848907113e-05
            ]
        },
        {
            "mesh" : 0,
            "name" : "cup",
            "translation" : [
                4.112226486206055,
                0.0,
                0.39134925603866577
            ]
        },
        {
            "mesh" : 1,
            "name" : "main",
            "translation" : [
                0.0,
                0.0,
                0.5212850570678711
            ]
        }
    ],
    "samplers" : [
        {}
    ],
    "scene" : 0,
    "scenes" : [
        {
            "name" : "Scene",
            "nodes" : [
                1,
                2,
                0,
                3
            ]
        }
    ],
    "textures" : [
        {
            "sampler" : 0,
            "source" : 0
        },
        {
            "sampler" : 0,
            "source" : 1
        },
        {
            "sampler" : 0,
            "source" : 2
        },
        {
            "sampler" : 0,
            "source" : 3
        },
        {
            "sampler" : 0,
            "source" : 4
        },
        {
            "sampler" : 0,
            "source" : 5
        },
        {
            "sampler" : 0,
            "source" : 6
        },
        {
            "sampler" : 0,
            "source" : 7
        },
        {
            "sampler" : 0,
            "source" : 8
        },
        {
            "sampler" : 0,
            "source" : 9
        },
        {
            "sampler" : 0,
            "source" : 10
        },
        {
            "sampler" : 0,
            "source" : 11
        },
        {
            "sampler" : 0,
            "source" : 12
        }
    ]
}
