{"accessors":[{"name":"Group_001_1_positions","componentType":5126,"count":586,"min":[-2195.2490234375,86.78690338134766,-566.27880859375],"max":[2195.2490234375,3213.328125,697.344482421875],"type":"VEC3","bufferView":0,"byteOffset":0},{"name":"Group_001_1_normals","componentType":5126,"count":586,"min":[-0.030500000342726707,-0.6746000051498413,-0.7269999980926514],"max":[0.0010999999940395355,0.996999979019165,1],"type":"VEC3","bufferView":0,"byteOffset":7032},{"name":"Group_001_1_texcoords","componentType":5126,"count":586,"min":[0.003599999938160181,-0.022600000724196434],"max":[1.0084999799728394,1.9931999444961548],"type":"VEC2","bufferView":1,"byteOffset":0},{"name":"Group_001_1_0_indices","componentType":5123,"count":1500,"min":[0],"max":[585],"type":"SCALAR","bufferView":2,"byteOffset":0}],"asset":{"generator":"obj2gltf","version":"2.0"},"buffers":[{"name":"3d-model","byteLength":21752,"uri":"data:application/octet-stream;base64,"}],"bufferViews":[{"name":"bufferView_0","buffer":0,"byteLength":14064,"byteOffset":0,"byteStride":12,"target":34962},{"name":"bufferView_1","buffer":0,"byteLength":4688,"byteOffset":14064,"byteStride":8,"target":34962},{"name":"bufferView_2","buffer":0,"byteLength":3000,"byteOffset":18752,"target":34963}],"materials":[{"name":"wire_134110008","pbrMetallicRoughness":{"baseColorFactor":[0.5255,0.4314,0.0314,1],"metallicFactor":0,"roughnessFactor":0.968},"emissiveFactor":[0,0,0],"alphaMode":"OPAQUE","doubleSided":false}],"meshes":[{"name":"Group_001_1","primitives":[{"attributes":{"POSITION":0,"NORMAL":1,"TEXCOORD_0":2},"indices":3,"material":0,"mode":4}]}],"nodes":[{"name":"Group_001","mesh":0}],"scene":0,"scenes":[{"nodes":[0]}]}
