{
  "accessors": [
    {
      "bufferView": 0,
      "componentType": 5125,
      "count": 183354,
      "type": "SCALAR"
    },
    {
      "bufferView": 1,
      "componentType": 5126,
      "count": 132425,
      "max": [
        0.538194119930267,
        0.174766704440117,
        0.999999940395355
      ],
      "min": [
        -0.538194119930267,
        -0.57925945520401,
        -1.0
      ],
      "type": "VEC3"
    },
    {
      "bufferView": 2,
      "componentType": 5126,
      "count": 132425,
      "type": "VEC3"
    },
    {
      "bufferView": 3,
      "componentType": 5126,
      "count": 132425,
      "type": "VEC2"
    },
    {
      "bufferView": 4,
      "componentType": 5125,
      "count": 63384,
      "type": "SCALAR"
    },
    {
      "bufferView": 5,
      "componentType": 5126,
      "count": 14042,
      "max": [
        0.52472060918808,
        0.57925945520401,
        0.897576868534088
      ],
      "min": [
        -0.504970014095306,
        -0.0790814235806465,
        -0.919441998004913
      ],
      "type": "VEC3"
    },
    {
      "bufferView": 6,
      "componentType": 5126,
      "count": 14042,
      "type": "VEC3"
    },
    {
      "bufferView": 7,
      "componentType": 5126,
      "count": 14042,
      "type": "VEC2"
    }
  ],
  "asset": {
    "generator": "Substance Painter 2018.1.1",
    "version": "2.0"
  },
  "bufferViews": [
    {
      "buffer": 0,
      "byteLength": 733416,
      "target": 34963
    },
    {
      "buffer": 0,
      "byteLength": 1589100,
      "byteOffset": 733416,
      "target": 34962
    },
    {
      "buffer": 0,
      "byteLength": 1589100,
      "byteOffset": 2322516,
      "target": 34962
    },
    {
      "buffer": 0,
      "byteLength": 1059400,
      "byteOffset": 3911616,
      "target": 34962
    },
    {
      "buffer": 0,
      "byteLength": 253536,
      "byteOffset": 4971016,
      "target": 34963
    },
    {
      "buffer": 0,
      "byteLength": 168504,
      "byteOffset": 5224552,
      "target": 34962
    },
    {
      "buffer": 0,
      "byteLength": 168504,
      "byteOffset": 5393056,
      "target": 34962
    },
    {
      "buffer": 0,
      "byteLength": 112336,
      "byteOffset": 5561560,
      "target": 34962
    }
  ],
  "buffers": [
    {
      "byteLength": 5673896,
      "uri": "Untitled.bin"
    }
  ],
  "images": [
    {
      "uri": "default_baseColor.png"
    },
    {
      "uri": "default_occlusionRoughnessMetallic.png"
    },
    {
      "uri": "default_normal.png"
    }
  ],
  "materials": [
    {
      "alphaMode": "OPAQUE",
      "name": "default",
      "normalTexture": {
        "index": 2
      },
      "occlusionTexture": {
        "index": 1
      },
      "pbrMetallicRoughness": {
        "baseColorTexture": {
          "index": 0
        },
        "metallicRoughnessTexture": {
          "index": 1
        }
      }
    }
  ],
  "meshes": [
    {
      "name": "down",
      "primitives": [
        {
          "attributes": {
            "NORMAL": 2,
            "POSITION": 1,
            "TEXCOORD_0": 3
          },
          "indices": 0,
          "material": 0,
          "mode": 4
        }
      ]
    },
    {
      "name": "up",
      "primitives": [
        {
          "attributes": {
            "NORMAL": 6,
            "POSITION": 5,
            "TEXCOORD_0": 7
          },
          "indices": 4,
          "material": 0,
          "mode": 4
        }
      ]
    }
  ],
  "nodes": [
    {
      "children": [
        1,
        3
      ],
      "name": "chest.obj",
      "scale": [
        2.2626166343689,
        2.2626166343689,
        2.2626166343689
      ],
      "translation": [
        -1.19225096702576,
        -0.367822051048279,
        0.0374836921691895
      ]
    },
    {
      "children": [
        2
      ],
      "name": "down"
    },
    {
      "mesh": 0,
      "name": "down"
    },
    {
      "children": [
        4
      ],
      "name": "up"
    },
    {
      "mesh": 1,
      "name": "up"
    }
  ],
  "samplers": [
    {
      "magFilter": 9729,
      "minFilter": 9985,
      "wrapS": 10497,
      "wrapT": 10497
    }
  ],
  "scene": 0,
  "scenes": [
    {
      "name": "Scene",
      "nodes": [
        0
      ]
    }
  ],
  "textures": [
    {
      "sampler": 0,
      "source": 0
    },
    {
      "sampler": 0,
      "source": 1
    },
    {
      "sampler": 0,
      "source": 2
    }
  ]
}