{
    "accessors" : [
        {
            "bufferView" : 0,
            "componentType" : 5123,
            "count" : 83160,
            "max" : [
                16631
            ],
            "min" : [
                0
            ],
            "type" : "SCALAR"
        },
        {
            "bufferView" : 1,
            "componentType" : 5126,
            "count" : 16632,
            "max" : [
                0.9690924882888794,
                0.2159997820854187,
                0.8941697478294373
            ],
            "min" : [
                -0.4055744409561157,
                -1.5564275979995728,
                -1.6646456718444824
            ],
            "type" : "VEC3"
        },
        {
            "bufferView" : 2,
            "componentType" : 5126,
            "count" : 16632,
            "max" : [
                0.99981689453125,
                0.9998779296875,
                0.99981689453125
            ],
            "min" : [
                -0.99981689453125,
                -0.9998779296875,
                -0.99981689453125
            ],
            "type" : "VEC3"
        },
        {
            "bufferView" : 3,
            "componentType" : 5126,
            "count" : 16632,
            "max" : [
                0.9999225735664368,
                0.999627947807312,
                0.9999684691429138,
                1.0
            ],
            "min" : [
                -0.9998854398727417,
                -0.9981974959373474,
                -0.9995431303977966,
                -1.0
            ],
            "type" : "VEC4"
        },
        {
            "bufferView" : 4,
            "componentType" : 5126,
            "count" : 16632,
            "max" : [
                0.4975486099720001,
                0.9975485801696777
            ],
            "min" : [
                0.0024514473043382168,
                0.0024514198303222656
            ],
            "type" : "VEC2"
        },
        {
            "bufferView" : 5,
            "componentType" : 5121,
            "count" : 84,
            "max" : [
                47
            ],
            "min" : [
                0
            ],
            "type" : "SCALAR"
        },
        {
            "bufferView" : 6,
            "componentType" : 5126,
            "count" : 48,
            "max" : [
                1.041262149810791,
                0.05923762544989586,
                0.22574803233146667
            ],
            "min" : [
                -1.041262149810791,
                -0.05923762544989586,
                -0.22574803233146667
            ],
            "type" : "VEC3"
        },
        {
            "bufferView" : 7,
            "componentType" : 5126,
            "count" : 48,
            "max" : [
                1.0,
                1.0,
                1.0
            ],
            "min" : [
                -1.0,
                -1.0,
                -1.0
            ],
            "type" : "VEC3"
        },
        {
            "bufferView" : 8,
            "componentType" : 5126,
            "count" : 48,
            "max" : [
                1.0,
                1.0,
                4.680846075189038e-07,
                1.0
            ],
            "min" : [
                -1.0,
                -1.0,
                -4.3727547449634585e-07,
                1.0
            ],
            "type" : "VEC4"
        },
        {
            "bufferView" : 9,
            "componentType" : 5126,
            "count" : 48,
            "max" : [
                1.0,
                1.0
            ],
            "min" : [
                0.0,
                0.0
            ],
            "type" : "VEC2"
        }
    ],
    "asset" : {
        "generator" : "Khronos Blender glTF 2.0 exporter",
        "version" : "2.0"
    },
    "bufferViews" : [
        {
            "buffer" : 0,
            "byteLength" : 166320,
            "byteOffset" : 0,
            "target" : 34963
        },
        {
            "buffer" : 0,
            "byteLength" : 199584,
            "byteOffset" : 166320,
            "target" : 34962
        },
        {
            "buffer" : 0,
            "byteLength" : 199584,
            "byteOffset" : 365904,
            "target" : 34962
        },
        {
            "buffer" : 0,
            "byteLength" : 266112,
            "byteOffset" : 565488,
            "target" : 34962
        },
        {
            "buffer" : 0,
            "byteLength" : 133056,
            "byteOffset" : 831600,
            "target" : 34962
        },
        {
            "buffer" : 0,
            "byteLength" : 84,
            "byteOffset" : 964656,
            "target" : 34963
        },
        {
            "buffer" : 0,
            "byteLength" : 576,
            "byteOffset" : 964740,
            "target" : 34962
        },
        {
            "buffer" : 0,
            "byteLength" : 576,
            "byteOffset" : 965316,
            "target" : 34962
        },
        {
            "buffer" : 0,
            "byteLength" : 768,
            "byteOffset" : 965892,
            "target" : 34962
        },
        {
            "buffer" : 0,
            "byteLength" : 384,
            "byteOffset" : 966660,
            "target" : 34962
        }
    ],
    "buffers" : [
        {
            "byteLength" : 967044,
            "uri" : "credit.bin"
        }
    ],
    "images" : [
        {
            "name" : "Mat_baseColor.png",
            "uri" : "Mat_baseColor.png.png"
        },
        {
            "name" : "Mat_occlusionRoughnessMetallic.png",
            "uri" : "Mat_occlusionRoughnessMetallic.png.png"
        },
        {
            "name" : "Mat_normal.png",
            "uri" : "Mat_normal.png.png"
        },
        {
            "name" : "Mat_baseColor",
            "uri" : "Mat_baseColor.png"
        },
        {
            "name" : "Mat_occlusionRoughnessMetallic",
            "uri" : "Mat_occlusionRoughnessMetallic.png"
        },
        {
            "name" : "Mat_normal",
            "uri" : "Mat_normal.png"
        }
    ],
    "materials" : [
        {
            "name" : "credit",
            "normalTexture" : {
                "index" : 2
            },
            "occlusionTexture" : {
                "index" : 1
            },
            "pbrMetallicRoughness" : {
                "baseColorTexture" : {
                    "index" : 0
                },
                "metallicRoughnessTexture" : {
                    "index" : 1
                }
            }
        },
        {
            "name" : "chain",
            "normalTexture" : {
                "index" : 5
            },
            "occlusionTexture" : {
                "index" : 4
            },
            "pbrMetallicRoughness" : {
                "baseColorTexture" : {
                    "index" : 3
                },
                "metallicRoughnessTexture" : {
                    "index" : 4
                }
            }
        }
    ],
    "meshes" : [
        {
            "name" : "Untitled.012",
            "primitives" : [
                {
                    "attributes" : {
                        "NORMAL" : 2,
                        "POSITION" : 1,
                        "TANGENT" : 3,
                        "TEXCOORD_0" : 4
                    },
                    "indices" : 0,
                    "material" : 1
                }
            ]
        },
        {
            "name" : "Untitled.011",
            "primitives" : [
                {
                    "attributes" : {
                        "NORMAL" : 7,
                        "POSITION" : 6,
                        "TANGENT" : 8,
                        "TEXCOORD_0" : 9
                    },
                    "indices" : 5,
                    "material" : 0
                }
            ]
        }
    ],
    "nodes" : [
        {
            "mesh" : 0,
            "name" : "cell",
            "rotation" : [
                0.546136200428009,
                0.6378676295280457,
                0.5046586990356445,
                0.2004489004611969
            ],
            "translation" : [
                0.9719906449317932,
                -0.15423628687858582,
                -0.007437685038894415
            ]
        },
        {
            "children" : [
                0
            ],
            "mesh" : 1,
            "name" : "credit",
            "rotation" : [
                0.7071068286895752,
                0.0,
                -0.0,
                0.7071067094802856
            ],
            "scale" : [
                2.0,
                2.0,
                2.0
            ]
        }
    ],
    "samplers" : [
        {}
    ],
    "scene" : 0,
    "scenes" : [
        {
            "name" : "Scene",
            "nodes" : [
                1
            ]
        }
    ],
    "textures" : [
        {
            "sampler" : 0,
            "source" : 0
        },
        {
            "sampler" : 0,
            "source" : 1
        },
        {
            "sampler" : 0,
            "source" : 2
        },
        {
            "sampler" : 0,
            "source" : 3
        },
        {
            "sampler" : 0,
            "source" : 4
        },
        {
            "sampler" : 0,
            "source" : 5
        }
    ]
}
