{
    "accessors" : [
        {
            "bufferView" : 0,
            "componentType" : 5123,
            "count" : 6240,
            "max" : [
                1495
            ],
            "min" : [
                0
            ],
            "type" : "SCALAR"
        },
        {
            "bufferView" : 1,
            "componentType" : 5126,
            "count" : 1496,
            "max" : [
                1.9391016960144043,
                -0.032075777649879456,
                1.0078811645507812
            ],
            "min" : [
                -1.9001455307006836,
                -2.412709951400757,
                0.16178709268569946
            ],
            "type" : "VEC3"
        },
        {
            "bufferView" : 2,
            "componentType" : 5126,
            "count" : 1496,
            "max" : [
                0.99993896484375,
                0.999237060546875,
                0.999298095703125
            ],
            "min" : [
                -0.9998779296875,
                -0.999237060546875,
                -0.99932861328125
            ],
            "type" : "VEC3"
        },
        {
            "bufferView" : 3,
            "componentType" : 5126,
            "count" : 1496,
            "max" : [
                0.9997079372406006,
                0.9972543120384216,
                0.999670684337616,
                1.0
            ],
            "min" : [
                -0.9999924898147583,
                -0.9994670748710632,
                -0.9995132088661194,
                -1.0
            ],
            "type" : "VEC4"
        },
        {
            "bufferView" : 4,
            "componentType" : 5126,
            "count" : 1496,
            "max" : [
                0.9997503757476807,
                1.0
            ],
            "min" : [
                0.00015198421897366643,
                0.0
            ],
            "type" : "VEC2"
        },
        {
            "bufferView" : 5,
            "componentType" : 5123,
            "count" : 4401,
            "max" : [
                1162
            ],
            "min" : [
                0
            ],
            "type" : "SCALAR"
        },
        {
            "bufferView" : 6,
            "componentType" : 5126,
            "count" : 1163,
            "max" : [
                0.5794028043746948,
                2.3771488666534424,
                0.957012414932251
            ],
            "min" : [
                -1.9176266193389893,
                -1.6355485916137695,
                0.12766030430793762
            ],
            "type" : "VEC3"
        },
        {
            "bufferView" : 7,
            "componentType" : 5126,
            "count" : 1163,
            "max" : [
                0.9945371747016907,
                0.99993896484375,
                0.9998779296875
            ],
            "min" : [
                -0.999969482421875,
                -0.9986571669578552,
                -0.9998779296875
            ],
            "type" : "VEC3"
        },
        {
            "bufferView" : 8,
            "componentType" : 5126,
            "count" : 1163,
            "max" : [
                0.999966025352478,
                0.9969945549964905,
                0.9997013211250305,
                1.0
            ],
            "min" : [
                -0.9999712705612183,
                -0.9976013898849487,
                -0.9997458457946777,
                -1.0
            ],
            "type" : "VEC4"
        },
        {
            "bufferView" : 9,
            "componentType" : 5126,
            "count" : 1163,
            "max" : [
                1.0,
                1.0
            ],
            "min" : [
                0.0,
                0.000125885009765625
            ],
            "type" : "VEC2"
        },
        {
            "bufferView" : 10,
            "componentType" : 5121,
            "count" : 132,
            "max" : [
                87
            ],
            "min" : [
                0
            ],
            "type" : "SCALAR"
        },
        {
            "bufferView" : 11,
            "componentType" : 5126,
            "count" : 88,
            "max" : [
                2.0000932216644287,
                2.0001180171966553,
                0.8119336366653442
            ],
            "min" : [
                -2.0000932216644287,
                -2.0001180171966553,
                -0.8119336366653442
            ],
            "type" : "VEC3"
        },
        {
            "bufferView" : 12,
            "componentType" : 5126,
            "count" : 88,
            "max" : [
                0.999969482421875,
                0.999969482421875,
                0.999969482421875
            ],
            "min" : [
                -0.999969482421875,
                -0.999969482421875,
                -0.999969482421875
            ],
            "type" : "VEC3"
        },
        {
            "bufferView" : 13,
            "componentType" : 5126,
            "count" : 88,
            "max" : [
                0.9999983906745911,
                0.9999948740005493,
                0.6516935229301453,
                1.0
            ],
            "min" : [
                -0.9999999403953552,
                -0.3262408375740051,
                -0.9999948143959045,
                1.0
            ],
            "type" : "VEC4"
        },
        {
            "bufferView" : 14,
            "componentType" : 5126,
            "count" : 88,
            "max" : [
                0.9974180459976196,
                0.5588467121124268
            ],
            "min" : [
                0.0025819377042353153,
                0.002581954002380371
            ],
            "type" : "VEC2"
        },
        {
            "bufferView" : 15,
            "componentType" : 5121,
            "count" : 276,
            "max" : [
                175
            ],
            "min" : [
                0
            ],
            "type" : "SCALAR"
        },
        {
            "bufferView" : 16,
            "componentType" : 5126,
            "count" : 176,
            "max" : [
                2.491281032562256,
                2.507462739944458,
                0.9736182689666748
            ],
            "min" : [
                -2.491281032562256,
                -2.507462739944458,
                -0.9736182689666748
            ],
            "type" : "VEC3"
        },
        {
            "bufferView" : 17,
            "componentType" : 5126,
            "count" : 176,
            "max" : [
                0.999969482421875,
                0.999969482421875,
                0.999969482421875
            ],
            "min" : [
                -0.999969482421875,
                -0.999969482421875,
                -0.999969482421875
            ],
            "type" : "VEC3"
        },
        {
            "bufferView" : 18,
            "componentType" : 5126,
            "count" : 176,
            "max" : [
                0.7481690645217896,
                0.7689068913459778,
                1.0,
                1.0
            ],
            "min" : [
                -0.7531141638755798,
                -0.0005679581081494689,
                -0.7399390935897827,
                1.0
            ],
            "type" : "VEC4"
        },
        {
            "bufferView" : 19,
            "componentType" : 5126,
            "count" : 176,
            "max" : [
                0.9955589175224304,
                0.9369741678237915
            ],
            "min" : [
                0.004441078752279282,
                0.00444108247756958
            ],
            "type" : "VEC2"
        },
        {
            "bufferView" : 20,
            "componentType" : 5121,
            "count" : 282,
            "max" : [
                223
            ],
            "min" : [
                0
            ],
            "type" : "SCALAR"
        },
        {
            "bufferView" : 21,
            "componentType" : 5126,
            "count" : 224,
            "max" : [
                2.4206066131591797,
                1.9361096620559692,
                2.4206058979034424
            ],
            "min" : [
                -2.4206066131591797,
                -2.112135887145996,
                -2.4206058979034424
            ],
            "type" : "VEC3"
        },
        {
            "bufferView" : 22,
            "componentType" : 5126,
            "count" : 224,
            "max" : [
                0.8801843523979187,
                0.999969482421875,
                0.8808252215385437
            ],
            "min" : [
                -0.8801843523979187,
                -0.6157414317131042,
                -0.8795739412307739
            ],
            "type" : "VEC3"
        },
        {
            "bufferView" : 23,
            "componentType" : 5126,
            "count" : 224,
            "max" : [
                0.5182961821556091,
                0.8808250427246094,
                0.9999996423721313,
                1.0
            ],
            "min" : [
                -0.5194393992424011,
                -0.8795982003211975,
                -0.9999998211860657,
                1.0
            ],
            "type" : "VEC4"
        },
        {
            "bufferView" : 24,
            "componentType" : 5126,
            "count" : 224,
            "max" : [
                0.9975219368934631,
                0.5005598068237305
            ],
            "min" : [
                0.002478065900504589,
                0.0024780631065368652
            ],
            "type" : "VEC2"
        },
        {
            "bufferView" : 25,
            "componentType" : 5123,
            "count" : 4080,
            "max" : [
                1058
            ],
            "min" : [
                0
            ],
            "type" : "SCALAR"
        },
        {
            "bufferView" : 26,
            "componentType" : 5126,
            "count" : 1059,
            "max" : [
                1.9413031339645386,
                2.376434087753296,
                0.9145037531852722
            ],
            "min" : [
                -0.337385356426239,
                -1.7699253559112549,
                0.14071083068847656
            ],
            "type" : "VEC3"
        },
        {
            "bufferView" : 27,
            "componentType" : 5126,
            "count" : 1059,
            "max" : [
                0.999969482421875,
                0.9986876845359802,
                0.999969482421875
            ],
            "min" : [
                -0.9945371747016907,
                -0.9986266493797302,
                -0.999969482421875
            ],
            "type" : "VEC3"
        },
        {
            "bufferView" : 28,
            "componentType" : 5126,
            "count" : 1059,
            "max" : [
                0.9999324679374695,
                0.9978466033935547,
                0.9997469186782837,
                1.0
            ],
            "min" : [
                -0.9999973773956299,
                -0.9951320290565491,
                -0.9995647668838501,
                -1.0
            ],
            "type" : "VEC4"
        },
        {
            "bufferView" : 29,
            "componentType" : 5126,
            "count" : 1059,
            "max" : [
                1.0,
                1.0
            ],
            "min" : [
                0.0,
                0.0
            ],
            "type" : "VEC2"
        }
    ],
    "asset" : {
        "generator" : "Khronos Blender glTF 2.0 exporter",
        "version" : "2.0"
    },
    "bufferViews" : [
        {
            "buffer" : 0,
            "byteLength" : 12480,
            "byteOffset" : 0,
            "target" : 34963
        },
        {
            "buffer" : 0,
            "byteLength" : 17952,
            "byteOffset" : 12480,
            "target" : 34962
        },
        {
            "buffer" : 0,
            "byteLength" : 17952,
            "byteOffset" : 30432,
            "target" : 34962
        },
        {
            "buffer" : 0,
            "byteLength" : 23936,
            "byteOffset" : 48384,
            "target" : 34962
        },
        {
            "buffer" : 0,
            "byteLength" : 11968,
            "byteOffset" : 72320,
            "target" : 34962
        },
        {
            "buffer" : 0,
            "byteLength" : 8802,
            "byteOffset" : 84288,
            "target" : 34963
        },
        {
            "buffer" : 0,
            "byteLength" : 13956,
            "byteOffset" : 93092,
            "target" : 34962
        },
        {
            "buffer" : 0,
            "byteLength" : 13956,
            "byteOffset" : 107048,
            "target" : 34962
        },
        {
            "buffer" : 0,
            "byteLength" : 18608,
            "byteOffset" : 121004,
            "target" : 34962
        },
        {
            "buffer" : 0,
            "byteLength" : 9304,
            "byteOffset" : 139612,
            "target" : 34962
        },
        {
            "buffer" : 0,
            "byteLength" : 132,
            "byteOffset" : 148916,
            "target" : 34963
        },
        {
            "buffer" : 0,
            "byteLength" : 1056,
            "byteOffset" : 149048,
            "target" : 34962
        },
        {
            "buffer" : 0,
            "byteLength" : 1056,
            "byteOffset" : 150104,
            "target" : 34962
        },
        {
            "buffer" : 0,
            "byteLength" : 1408,
            "byteOffset" : 151160,
            "target" : 34962
        },
        {
            "buffer" : 0,
            "byteLength" : 704,
            "byteOffset" : 152568,
            "target" : 34962
        },
        {
            "buffer" : 0,
            "byteLength" : 276,
            "byteOffset" : 153272,
            "target" : 34963
        },
        {
            "buffer" : 0,
            "byteLength" : 2112,
            "byteOffset" : 153548,
            "target" : 34962
        },
        {
            "buffer" : 0,
            "byteLength" : 2112,
            "byteOffset" : 155660,
            "target" : 34962
        },
        {
            "buffer" : 0,
            "byteLength" : 2816,
            "byteOffset" : 157772,
            "target" : 34962
        },
        {
            "buffer" : 0,
            "byteLength" : 1408,
            "byteOffset" : 160588,
            "target" : 34962
        },
        {
            "buffer" : 0,
            "byteLength" : 282,
            "byteOffset" : 161996,
            "target" : 34963
        },
        {
            "buffer" : 0,
            "byteLength" : 2688,
            "byteOffset" : 162280,
            "target" : 34962
        },
        {
            "buffer" : 0,
            "byteLength" : 2688,
            "byteOffset" : 164968,
            "target" : 34962
        },
        {
            "buffer" : 0,
            "byteLength" : 3584,
            "byteOffset" : 167656,
            "target" : 34962
        },
        {
            "buffer" : 0,
            "byteLength" : 1792,
            "byteOffset" : 171240,
            "target" : 34962
        },
        {
            "buffer" : 0,
            "byteLength" : 8160,
            "byteOffset" : 173032,
            "target" : 34963
        },
        {
            "buffer" : 0,
            "byteLength" : 12708,
            "byteOffset" : 181192,
            "target" : 34962
        },
        {
            "buffer" : 0,
            "byteLength" : 12708,
            "byteOffset" : 193900,
            "target" : 34962
        },
        {
            "buffer" : 0,
            "byteLength" : 16944,
            "byteOffset" : 206608,
            "target" : 34962
        },
        {
            "buffer" : 0,
            "byteLength" : 8472,
            "byteOffset" : 223552,
            "target" : 34962
        }
    ],
    "buffers" : [
        {
            "byteLength" : 232024,
            "uri" : "diamond.bin"
        }
    ],
    "images" : [
        {
            "name" : "PirateTreasureMapScroll_emissive",
            "uri" : "PirateTreasureMapScroll_emissive.jpg"
        },
        {
            "name" : "PirateTreasureMapScroll_diffuse",
            "uri" : "PirateTreasureMapScroll_diffuse.jpg"
        }
    ],
    "materials" : [
        {
            "emissiveFactor" : [
                1.0,
                1.0,
                1.0
            ],
            "emissiveTexture" : {
                "index" : 0
            },
            "name" : "map",
            "pbrMetallicRoughness" : {
                "baseColorTexture" : {
                    "index" : 1
                },
                "metallicFactor" : 0.0
            }
        }
    ],
    "meshes" : [
        {
            "name" : "Untitled.015",
            "primitives" : [
                {
                    "attributes" : {
                        "NORMAL" : 2,
                        "POSITION" : 1,
                        "TANGENT" : 3,
                        "TEXCOORD_0" : 4
                    },
                    "indices" : 0,
                    "material" : 0
                }
            ]
        },
        {
            "name" : "Untitled.013",
            "primitives" : [
                {
                    "attributes" : {
                        "NORMAL" : 7,
                        "POSITION" : 6,
                        "TANGENT" : 8,
                        "TEXCOORD_0" : 9
                    },
                    "indices" : 5,
                    "material" : 0
                }
            ]
        },
        {
            "name" : "Untitled.017",
            "primitives" : [
                {
                    "attributes" : {
                        "NORMAL" : 12,
                        "POSITION" : 11,
                        "TANGENT" : 13,
                        "TEXCOORD_0" : 14
                    },
                    "indices" : 10
                }
            ]
        },
        {
            "name" : "Untitled.012",
            "primitives" : [
                {
                    "attributes" : {
                        "NORMAL" : 17,
                        "POSITION" : 16,
                        "TANGENT" : 18,
                        "TEXCOORD_0" : 19
                    },
                    "indices" : 15
                }
            ]
        },
        {
            "name" : "Untitled.014",
            "primitives" : [
                {
                    "attributes" : {
                        "NORMAL" : 22,
                        "POSITION" : 21,
                        "TANGENT" : 23,
                        "TEXCOORD_0" : 24
                    },
                    "indices" : 20
                }
            ]
        },
        {
            "name" : "Untitled.016",
            "primitives" : [
                {
                    "attributes" : {
                        "NORMAL" : 27,
                        "POSITION" : 26,
                        "TANGENT" : 28,
                        "TEXCOORD_0" : 29
                    },
                    "indices" : 25,
                    "material" : 0
                }
            ]
        }
    ],
    "nodes" : [
        {
            "mesh" : 4,
            "name" : "diamond"
        },
        {
            "mesh" : 1,
            "name" : "map_1"
        },
        {
            "mesh" : 5,
            "name" : "map_2"
        },
        {
            "mesh" : 0,
            "name" : "map_3"
        },
        {
            "mesh" : 3,
            "name" : "pad"
        },
        {
            "mesh" : 2,
            "name" : "square"
        }
    ],
    "samplers" : [
        {}
    ],
    "scene" : 0,
    "scenes" : [
        {
            "name" : "Scene",
            "nodes" : [
                5,
                0,
                4,
                1,
                2,
                3
            ]
        }
    ],
    "textures" : [
        {
            "sampler" : 0,
            "source" : 0
        },
        {
            "sampler" : 0,
            "source" : 1
        }
    ]
}
