{
    "accessors" : [
        {
            "bufferView" : 0,
            "componentType" : 5121,
            "count" : 180,
            "max" : [
                119
            ],
            "min" : [
                0
            ],
            "type" : "SCALAR"
        },
        {
            "bufferView" : 1,
            "componentType" : 5126,
            "count" : 120,
            "max" : [
                2.0000932216644287,
                2.0001180171966553,
                0.8119336366653442
            ],
            "min" : [
                -2.0000932216644287,
                -2.0001180171966553,
                -0.8119336366653442
            ],
            "type" : "VEC3"
        },
        {
            "bufferView" : 2,
            "componentType" : 5126,
            "count" : 120,
            "max" : [
                0.999969482421875,
                0.999969482421875,
                0.999969482421875
            ],
            "min" : [
                -0.999969482421875,
                -0.999969482421875,
                -0.999969482421875
            ],
            "type" : "VEC3"
        },
        {
            "bufferView" : 3,
            "componentType" : 5126,
            "count" : 120,
            "max" : [
                0.9974180459976196,
                0.5588467121124268
            ],
            "min" : [
                0.0025819377042353153,
                0.002581954002380371
            ],
            "type" : "VEC2"
        },
        {
            "bufferView" : 4,
            "componentType" : 5121,
            "count" : 564,
            "max" : [
                193
            ],
            "min" : [
                0
            ],
            "type" : "SCALAR"
        },
        {
            "bufferView" : 5,
            "componentType" : 5126,
            "count" : 194,
            "max" : [
                2.091791868209839,
                2.091791868209839,
                0.12262782454490662
            ],
            "min" : [
                -2.091791868209839,
                -2.091791868209839,
                -0.12262782454490662
            ],
            "type" : "VEC3"
        },
        {
            "bufferView" : 6,
            "componentType" : 5126,
            "count" : 194,
            "max" : [
                1.0,
                1.0,
                1.0
            ],
            "min" : [
                -1.0,
                -1.0,
                -1.0
            ],
            "type" : "VEC3"
        },
        {
            "bufferView" : 7,
            "componentType" : 5126,
            "count" : 194,
            "max" : [
                0.5453426837921143,
                0.997401237487793
            ],
            "min" : [
                0.002598753897473216,
                0.0025987625122070312
            ],
            "type" : "VEC2"
        },
        {
            "bufferView" : 8,
            "componentType" : 5123,
            "count" : 4014,
            "max" : [
                948
            ],
            "min" : [
                0
            ],
            "type" : "SCALAR"
        },
        {
            "bufferView" : 9,
            "componentType" : 5126,
            "count" : 949,
            "max" : [
                1.9265389442443848,
                2.3587028980255127,
                0.9515479803085327
            ],
            "min" : [
                -0.34208250045776367,
                -1.6218394041061401,
                0.12816587090492249
            ],
            "type" : "VEC3"
        },
        {
            "bufferView" : 10,
            "componentType" : 5126,
            "count" : 949,
            "max" : [
                0.99993896484375,
                0.9987182021141052,
                0.999969482421875
            ],
            "min" : [
                -0.9804986715316772,
                -0.999542236328125,
                -0.999969482421875
            ],
            "type" : "VEC3"
        },
        {
            "bufferView" : 11,
            "componentType" : 5126,
            "count" : 949,
            "max" : [
                0.9908000230789185,
                0.9193383455276489
            ],
            "min" : [
                0.009499999694526196,
                0.02869999408721924
            ],
            "type" : "VEC2"
        },
        {
            "bufferView" : 12,
            "componentType" : 5121,
            "count" : 282,
            "max" : [
                223
            ],
            "min" : [
                0
            ],
            "type" : "SCALAR"
        },
        {
            "bufferView" : 13,
            "componentType" : 5126,
            "count" : 224,
            "max" : [
                2.4206066131591797,
                1.9361096620559692,
                2.4206058979034424
            ],
            "min" : [
                -2.4206066131591797,
                -2.112135887145996,
                -2.4206058979034424
            ],
            "type" : "VEC3"
        },
        {
            "bufferView" : 14,
            "componentType" : 5126,
            "count" : 224,
            "max" : [
                0.8801843523979187,
                0.999969482421875,
                0.8808252215385437
            ],
            "min" : [
                -0.8801843523979187,
                -0.6157414317131042,
                -0.8795739412307739
            ],
            "type" : "VEC3"
        },
        {
            "bufferView" : 15,
            "componentType" : 5126,
            "count" : 224,
            "max" : [
                0.9975219368934631,
                0.5005598068237305
            ],
            "min" : [
                0.002478065900504589,
                0.0024780631065368652
            ],
            "type" : "VEC2"
        },
        {
            "bufferView" : 16,
            "componentType" : 5123,
            "count" : 4254,
            "max" : [
                979
            ],
            "min" : [
                0
            ],
            "type" : "SCALAR"
        },
        {
            "bufferView" : 17,
            "componentType" : 5126,
            "count" : 980,
            "max" : [
                0.5484722852706909,
                2.356929302215576,
                0.9062451720237732
            ],
            "min" : [
                -1.9032388925552368,
                -1.3007776737213135,
                0.13829047977924347
            ],
            "type" : "VEC3"
        },
        {
            "bufferView" : 18,
            "componentType" : 5126,
            "count" : 980,
            "max" : [
                0.9804986715316772,
                0.9982299208641052,
                0.999969482421875
            ],
            "min" : [
                -0.999969482421875,
                -0.9979247450828552,
                -0.999969482421875
            ],
            "type" : "VEC3"
        },
        {
            "bufferView" : 19,
            "componentType" : 5126,
            "count" : 980,
            "max" : [
                0.8130887746810913,
                0.9989523887634277
            ],
            "min" : [
                0.0010475680464878678,
                0.0010475516319274902
            ],
            "type" : "VEC2"
        },
        {
            "bufferView" : 20,
            "componentType" : 5121,
            "count" : 372,
            "max" : [
                239
            ],
            "min" : [
                0
            ],
            "type" : "SCALAR"
        },
        {
            "bufferView" : 21,
            "componentType" : 5126,
            "count" : 240,
            "max" : [
                2.0129549503326416,
                2.0260300636291504,
                0.7866835594177246
            ],
            "min" : [
                -2.0129549503326416,
                -2.0260300636291504,
                -0.7866835594177246
            ],
            "type" : "VEC3"
        },
        {
            "bufferView" : 22,
            "componentType" : 5126,
            "count" : 240,
            "max" : [
                0.999969482421875,
                0.999969482421875,
                0.999969482421875
            ],
            "min" : [
                -0.999969482421875,
                -0.999969482421875,
                -0.999969482421875
            ],
            "type" : "VEC3"
        },
        {
            "bufferView" : 23,
            "componentType" : 5126,
            "count" : 240,
            "max" : [
                1.0,
                1.0
            ],
            "min" : [
                0.0,
                0.0
            ],
            "type" : "VEC2"
        },
        {
            "bufferView" : 24,
            "componentType" : 5121,
            "count" : 216,
            "max" : [
                167
            ],
            "min" : [
                0
            ],
            "type" : "SCALAR"
        },
        {
            "bufferView" : 25,
            "componentType" : 5126,
            "count" : 168,
            "max" : [
                2.339423418045044,
                2.3892242908477783,
                2.339423418045044
            ],
            "min" : [
                -2.339423418045044,
                -2.3892242908477783,
                -2.339423418045044
            ],
            "type" : "VEC3"
        },
        {
            "bufferView" : 26,
            "componentType" : 5126,
            "count" : 168,
            "max" : [
                0.7348551750183105,
                0.6834925413131714,
                0.7348551750183105
            ],
            "min" : [
                -0.7348551750183105,
                -0.6834925413131714,
                -0.7348551750183105
            ],
            "type" : "VEC3"
        },
        {
            "bufferView" : 27,
            "componentType" : 5126,
            "count" : 168,
            "max" : [
                1.0,
                1.0
            ],
            "min" : [
                0.0,
                0.0
            ],
            "type" : "VEC2"
        },
        {
            "bufferView" : 28,
            "componentType" : 5123,
            "count" : 6210,
            "max" : [
                1368
            ],
            "min" : [
                0
            ],
            "type" : "SCALAR"
        },
        {
            "bufferView" : 29,
            "componentType" : 5126,
            "count" : 1369,
            "max" : [
                1.9097715616226196,
                -0.03254246711730957,
                1.0017517805099487
            ],
            "min" : [
                -1.9012397527694702,
                -2.396702766418457,
                0.1740168035030365
            ],
            "type" : "VEC3"
        },
        {
            "bufferView" : 30,
            "componentType" : 5126,
            "count" : 1369,
            "max" : [
                0.9998779296875,
                0.999481201171875,
                0.99993896484375
            ],
            "min" : [
                -0.99993896484375,
                -0.999420166015625,
                -0.99993896484375
            ],
            "type" : "VEC3"
        },
        {
            "bufferView" : 31,
            "componentType" : 5126,
            "count" : 1369,
            "max" : [
                0.9951000213623047,
                0.9902999401092529
            ],
            "min" : [
                0.017899999395012856,
                0.36904382705688477
            ],
            "type" : "VEC2"
        }
    ],
    "asset" : {
        "generator" : "Khronos Blender glTF 2.0 exporter",
        "version" : "2.0"
    },
    "bufferViews" : [
        {
            "buffer" : 0,
            "byteLength" : 180,
            "byteOffset" : 0,
            "target" : 34963
        },
        {
            "buffer" : 0,
            "byteLength" : 1440,
            "byteOffset" : 180,
            "target" : 34962
        },
        {
            "buffer" : 0,
            "byteLength" : 1440,
            "byteOffset" : 1620,
            "target" : 34962
        },
        {
            "buffer" : 0,
            "byteLength" : 960,
            "byteOffset" : 3060,
            "target" : 34962
        },
        {
            "buffer" : 0,
            "byteLength" : 564,
            "byteOffset" : 4020,
            "target" : 34963
        },
        {
            "buffer" : 0,
            "byteLength" : 2328,
            "byteOffset" : 4584,
            "target" : 34962
        },
        {
            "buffer" : 0,
            "byteLength" : 2328,
            "byteOffset" : 6912,
            "target" : 34962
        },
        {
            "buffer" : 0,
            "byteLength" : 1552,
            "byteOffset" : 9240,
            "target" : 34962
        },
        {
            "buffer" : 0,
            "byteLength" : 8028,
            "byteOffset" : 10792,
            "target" : 34963
        },
        {
            "buffer" : 0,
            "byteLength" : 11388,
            "byteOffset" : 18820,
            "target" : 34962
        },
        {
            "buffer" : 0,
            "byteLength" : 11388,
            "byteOffset" : 30208,
            "target" : 34962
        },
        {
            "buffer" : 0,
            "byteLength" : 7592,
            "byteOffset" : 41596,
            "target" : 34962
        },
        {
            "buffer" : 0,
            "byteLength" : 282,
            "byteOffset" : 49188,
            "target" : 34963
        },
        {
            "buffer" : 0,
            "byteLength" : 2688,
            "byteOffset" : 49472,
            "target" : 34962
        },
        {
            "buffer" : 0,
            "byteLength" : 2688,
            "byteOffset" : 52160,
            "target" : 34962
        },
        {
            "buffer" : 0,
            "byteLength" : 1792,
            "byteOffset" : 54848,
            "target" : 34962
        },
        {
            "buffer" : 0,
            "byteLength" : 8508,
            "byteOffset" : 56640,
            "target" : 34963
        },
        {
            "buffer" : 0,
            "byteLength" : 11760,
            "byteOffset" : 65148,
            "target" : 34962
        },
        {
            "buffer" : 0,
            "byteLength" : 11760,
            "byteOffset" : 76908,
            "target" : 34962
        },
        {
            "buffer" : 0,
            "byteLength" : 7840,
            "byteOffset" : 88668,
            "target" : 34962
        },
        {
            "buffer" : 0,
            "byteLength" : 372,
            "byteOffset" : 96508,
            "target" : 34963
        },
        {
            "buffer" : 0,
            "byteLength" : 2880,
            "byteOffset" : 96880,
            "target" : 34962
        },
        {
            "buffer" : 0,
            "byteLength" : 2880,
            "byteOffset" : 99760,
            "target" : 34962
        },
        {
            "buffer" : 0,
            "byteLength" : 1920,
            "byteOffset" : 102640,
            "target" : 34962
        },
        {
            "buffer" : 0,
            "byteLength" : 216,
            "byteOffset" : 104560,
            "target" : 34963
        },
        {
            "buffer" : 0,
            "byteLength" : 2016,
            "byteOffset" : 104776,
            "target" : 34962
        },
        {
            "buffer" : 0,
            "byteLength" : 2016,
            "byteOffset" : 106792,
            "target" : 34962
        },
        {
            "buffer" : 0,
            "byteLength" : 1344,
            "byteOffset" : 108808,
            "target" : 34962
        },
        {
            "buffer" : 0,
            "byteLength" : 12420,
            "byteOffset" : 110152,
            "target" : 34963
        },
        {
            "buffer" : 0,
            "byteLength" : 16428,
            "byteOffset" : 122572,
            "target" : 34962
        },
        {
            "buffer" : 0,
            "byteLength" : 16428,
            "byteOffset" : 139000,
            "target" : 34962
        },
        {
            "buffer" : 0,
            "byteLength" : 10952,
            "byteOffset" : 155428,
            "target" : 34962
        }
    ],
    "buffers" : [
        {
            "byteLength" : 166380,
            "uri" : "diamond.bin"
        }
    ],
    "images" : [
        {
            "name" : "PirateTreasureMapScroll_emissive.jpg",
            "uri" : "PirateTreasureMapScroll_emissive.jpg.jpg"
        },
        {
            "name" : "PirateTreasureMapScroll_diffuse.jpg",
            "uri" : "PirateTreasureMapScroll_diffuse.jpg.jpg"
        },
        {
            "name" : "DefaultMaterial_occlusionRoughnessMetallic",
            "uri" : "DefaultMaterial_occlusionRoughnessMetallic.png"
        },
        {
            "name" : "DefaultMaterial_normal",
            "uri" : "DefaultMaterial_normal.png"
        },
        {
            "name" : "DefaultMaterial_baseColor",
            "uri" : "DefaultMaterial_baseColor.png"
        }
    ],
    "materials" : [
        {
            "emissiveFactor" : [
                1.0,
                1.0,
                1.0
            ],
            "emissiveTexture" : {
                "index" : 0
            },
            "name" : "map",
            "pbrMetallicRoughness" : {
                "baseColorTexture" : {
                    "index" : 1
                },
                "metallicFactor" : 0.0
            }
        },
        {
            "name" : "coin",
            "normalTexture" : {
                "index" : 3
            },
            "occlusionTexture" : {
                "index" : 2
            },
            "pbrMetallicRoughness" : {
                "baseColorTexture" : {
                    "index" : 4
                },
                "metallicRoughnessTexture" : {
                    "index" : 2
                }
            }
        }
    ],
    "meshes" : [
        {
            "name" : "Untitled.024",
            "primitives" : [
                {
                    "attributes" : {
                        "NORMAL" : 2,
                        "POSITION" : 1,
                        "TEXCOORD_0" : 3
                    },
                    "indices" : 0
                }
            ]
        },
        {
            "name" : "Untitled.027",
            "primitives" : [
                {
                    "attributes" : {
                        "NORMAL" : 6,
                        "POSITION" : 5,
                        "TEXCOORD_0" : 7
                    },
                    "indices" : 4,
                    "material" : 1
                }
            ]
        },
        {
            "name" : "Untitled.023",
            "primitives" : [
                {
                    "attributes" : {
                        "NORMAL" : 10,
                        "POSITION" : 9,
                        "TEXCOORD_0" : 11
                    },
                    "indices" : 8,
                    "material" : 0
                }
            ]
        },
        {
            "name" : "Untitled.022",
            "primitives" : [
                {
                    "attributes" : {
                        "NORMAL" : 14,
                        "POSITION" : 13,
                        "TEXCOORD_0" : 15
                    },
                    "indices" : 12
                }
            ]
        },
        {
            "name" : "Untitled.028",
            "primitives" : [
                {
                    "attributes" : {
                        "NORMAL" : 18,
                        "POSITION" : 17,
                        "TEXCOORD_0" : 19
                    },
                    "indices" : 16,
                    "material" : 0
                }
            ]
        },
        {
            "name" : "Untitled.025",
            "primitives" : [
                {
                    "attributes" : {
                        "NORMAL" : 22,
                        "POSITION" : 21,
                        "TEXCOORD_0" : 23
                    },
                    "indices" : 20
                }
            ]
        },
        {
            "name" : "Untitled.029",
            "primitives" : [
                {
                    "attributes" : {
                        "NORMAL" : 26,
                        "POSITION" : 25,
                        "TEXCOORD_0" : 27
                    },
                    "indices" : 24
                }
            ]
        },
        {
            "name" : "Untitled.026",
            "primitives" : [
                {
                    "attributes" : {
                        "NORMAL" : 30,
                        "POSITION" : 29,
                        "TEXCOORD_0" : 31
                    },
                    "indices" : 28,
                    "material" : 0
                }
            ]
        }
    ],
    "nodes" : [
        {
            "mesh" : 1,
            "name" : "coin"
        },
        {
            "mesh" : 3,
            "name" : "diamond"
        },
        {
            "mesh" : 4,
            "name" : "map_1",
            "translation" : [
                0.0,
                0.0,
                -0.1022128239274025
            ]
        },
        {
            "mesh" : 2,
            "name" : "map_2",
            "translation" : [
                0.0,
                0.0,
                -0.1022128239274025
            ]
        },
        {
            "mesh" : 7,
            "name" : "map_3",
            "translation" : [
                0.0,
                0.0,
                -0.1022128239274025
            ]
        },
        {
            "mesh" : 6,
            "name" : "octa"
        },
        {
            "mesh" : 5,
            "name" : "pad"
        },
        {
            "mesh" : 0,
            "name" : "square"
        }
    ],
    "samplers" : [
        {}
    ],
    "scene" : 0,
    "scenes" : [
        {
            "name" : "Scene",
            "nodes" : [
                7,
                1,
                6,
                5,
                0,
                4,
                3,
                2
            ]
        }
    ],
    "textures" : [
        {
            "sampler" : 0,
            "source" : 0
        },
        {
            "sampler" : 0,
            "source" : 1
        },
        {
            "sampler" : 0,
            "source" : 2
        },
        {
            "sampler" : 0,
            "source" : 3
        },
        {
            "sampler" : 0,
            "source" : 4
        }
    ]
}
