{
    "accessors" : [
        {
            "bufferView" : 0,
            "componentType" : 5123,
            "count" : 4080,
            "max" : [
                1058
            ],
            "min" : [
                0
            ],
            "type" : "SCALAR"
        },
        {
            "bufferView" : 1,
            "componentType" : 5126,
            "count" : 1059,
            "max" : [
                2.1676650047302246,
                2.6573195457458496,
                0.9551819562911987
            ],
            "min" : [
                -0.3783557415008545,
                -1.9754842519760132,
                0.09060882776975632
            ],
            "type" : "VEC3"
        },
        {
            "bufferView" : 2,
            "componentType" : 5126,
            "count" : 1059,
            "max" : [
                0.999969482421875,
                0.9986876845359802,
                0.999969482421875
            ],
            "min" : [
                -0.9945371747016907,
                -0.9986266493797302,
                -0.999969482421875
            ],
            "type" : "VEC3"
        },
        {
            "bufferView" : 3,
            "componentType" : 5126,
            "count" : 1059,
            "max" : [
                0.999932587146759,
                0.9978507161140442,
                0.9997459053993225,
                1.0
            ],
            "min" : [
                -0.9999974370002747,
                -0.9951325058937073,
                -0.9995646476745605,
                -1.0
            ],
            "type" : "VEC4"
        },
        {
            "bufferView" : 4,
            "componentType" : 5126,
            "count" : 1059,
            "max" : [
                1.0,
                1.0
            ],
            "min" : [
                0.0,
                0.0
            ],
            "type" : "VEC2"
        },
        {
            "bufferView" : 5,
            "componentType" : 5121,
            "count" : 282,
            "max" : [
                223
            ],
            "min" : [
                0
            ],
            "type" : "SCALAR"
        },
        {
            "bufferView" : 6,
            "componentType" : 5126,
            "count" : 224,
            "max" : [
                2.4206066131591797,
                1.9361096620559692,
                2.4206058979034424
            ],
            "min" : [
                -2.4206066131591797,
                -2.112135887145996,
                -2.4206058979034424
            ],
            "type" : "VEC3"
        },
        {
            "bufferView" : 7,
            "componentType" : 5126,
            "count" : 224,
            "max" : [
                0.8801843523979187,
                0.999969482421875,
                0.8808252215385437
            ],
            "min" : [
                -0.8801843523979187,
                -0.6501663327217102,
                -0.8795739412307739
            ],
            "type" : "VEC3"
        },
        {
            "bufferView" : 8,
            "componentType" : 5126,
            "count" : 224,
            "max" : [
                0.9742273092269897,
                0.8795919418334961,
                0.9999993443489075,
                1.0
            ],
            "min" : [
                -1.0,
                -0.8808186650276184,
                -0.999998152256012,
                -1.0
            ],
            "type" : "VEC4"
        },
        {
            "bufferView" : 9,
            "componentType" : 5126,
            "count" : 224,
            "max" : [
                1.0,
                1.0
            ],
            "min" : [
                0.0,
                0.0
            ],
            "type" : "VEC2"
        },
        {
            "bufferView" : 10,
            "componentType" : 5123,
            "count" : 6240,
            "max" : [
                1495
            ],
            "min" : [
                0
            ],
            "type" : "SCALAR"
        },
        {
            "bufferView" : 11,
            "componentType" : 5126,
            "count" : 1496,
            "max" : [
                2.165205240249634,
                -0.033752862364053726,
                1.0595142841339111
            ],
            "min" : [
                -2.1244566440582275,
                -2.6936793327331543,
                0.11415772140026093
            ],
            "type" : "VEC3"
        },
        {
            "bufferView" : 12,
            "componentType" : 5126,
            "count" : 1496,
            "max" : [
                0.99993896484375,
                0.999237060546875,
                0.999298095703125
            ],
            "min" : [
                -0.9998779296875,
                -0.999237060546875,
                -0.99932861328125
            ],
            "type" : "VEC3"
        },
        {
            "bufferView" : 13,
            "componentType" : 5126,
            "count" : 1496,
            "max" : [
                0.9997078776359558,
                0.9972541332244873,
                0.9996707439422607,
                1.0
            ],
            "min" : [
                -0.9999921917915344,
                -0.9994674921035767,
                -0.9995133280754089,
                -1.0
            ],
            "type" : "VEC4"
        },
        {
            "bufferView" : 14,
            "componentType" : 5126,
            "count" : 1496,
            "max" : [
                0.9997503757476807,
                1.0
            ],
            "min" : [
                0.00015198421897366643,
                0.0
            ],
            "type" : "VEC2"
        },
        {
            "bufferView" : 15,
            "componentType" : 5123,
            "count" : 4401,
            "max" : [
                1162
            ],
            "min" : [
                0
            ],
            "type" : "SCALAR"
        },
        {
            "bufferView" : 16,
            "componentType" : 5126,
            "count" : 1163,
            "max" : [
                0.6459885835647583,
                2.65811824798584,
                1.0026776790618896
            ],
            "min" : [
                -2.1439883708953857,
                -1.8253426551818848,
                0.07602723687887192
            ],
            "type" : "VEC3"
        },
        {
            "bufferView" : 17,
            "componentType" : 5126,
            "count" : 1163,
            "max" : [
                0.9945371747016907,
                0.99993896484375,
                0.9998779296875
            ],
            "min" : [
                -0.999969482421875,
                -0.9986571669578552,
                -0.9998779296875
            ],
            "type" : "VEC3"
        },
        {
            "bufferView" : 18,
            "componentType" : 5126,
            "count" : 1163,
            "max" : [
                0.9999660849571228,
                0.9969945549964905,
                0.9997012615203857,
                1.0
            ],
            "min" : [
                -0.9999712705612183,
                -0.9976016283035278,
                -0.9997458457946777,
                -1.0
            ],
            "type" : "VEC4"
        },
        {
            "bufferView" : 19,
            "componentType" : 5126,
            "count" : 1163,
            "max" : [
                1.0,
                1.0
            ],
            "min" : [
                0.0,
                0.000125885009765625
            ],
            "type" : "VEC2"
        },
        {
            "bufferView" : 20,
            "componentType" : 5121,
            "count" : 132,
            "max" : [
                87
            ],
            "min" : [
                0
            ],
            "type" : "SCALAR"
        },
        {
            "bufferView" : 21,
            "componentType" : 5126,
            "count" : 88,
            "max" : [
                2.0000932216644287,
                2.0001180171966553,
                0.8119336366653442
            ],
            "min" : [
                -2.0000932216644287,
                -2.0001180171966553,
                -0.8119336366653442
            ],
            "type" : "VEC3"
        },
        {
            "bufferView" : 22,
            "componentType" : 5126,
            "count" : 88,
            "max" : [
                0.999969482421875,
                0.999969482421875,
                0.999969482421875
            ],
            "min" : [
                -0.999969482421875,
                -0.999969482421875,
                -0.999969482421875
            ],
            "type" : "VEC3"
        },
        {
            "bufferView" : 23,
            "componentType" : 5126,
            "count" : 88,
            "max" : [
                0.9999983906745911,
                0.9999948740005493,
                0.6516935229301453,
                1.0
            ],
            "min" : [
                -0.9999999403953552,
                -0.3262408375740051,
                -0.9999948143959045,
                1.0
            ],
            "type" : "VEC4"
        },
        {
            "bufferView" : 24,
            "componentType" : 5126,
            "count" : 88,
            "max" : [
                0.9974180459976196,
                0.5588467121124268
            ],
            "min" : [
                0.0025819377042353153,
                0.002581954002380371
            ],
            "type" : "VEC2"
        },
        {
            "bufferView" : 25,
            "componentType" : 5121,
            "count" : 276,
            "max" : [
                175
            ],
            "min" : [
                0
            ],
            "type" : "SCALAR"
        },
        {
            "bufferView" : 26,
            "componentType" : 5126,
            "count" : 176,
            "max" : [
                2.491281032562256,
                2.507462739944458,
                0.9736182689666748
            ],
            "min" : [
                -2.491281032562256,
                -2.507462739944458,
                -0.9736182689666748
            ],
            "type" : "VEC3"
        },
        {
            "bufferView" : 27,
            "componentType" : 5126,
            "count" : 176,
            "max" : [
                0.999969482421875,
                0.999969482421875,
                0.999969482421875
            ],
            "min" : [
                -0.999969482421875,
                -0.999969482421875,
                -0.999969482421875
            ],
            "type" : "VEC3"
        },
        {
            "bufferView" : 28,
            "componentType" : 5126,
            "count" : 176,
            "max" : [
                0.7481690645217896,
                0.7689068913459778,
                1.0,
                1.0
            ],
            "min" : [
                -0.7531141638755798,
                -0.0005679581081494689,
                -0.7399390935897827,
                1.0
            ],
            "type" : "VEC4"
        },
        {
            "bufferView" : 29,
            "componentType" : 5126,
            "count" : 176,
            "max" : [
                0.9955589175224304,
                0.9369741678237915
            ],
            "min" : [
                0.004441078752279282,
                0.00444108247756958
            ],
            "type" : "VEC2"
        }
    ],
    "asset" : {
        "generator" : "Khronos Blender glTF 2.0 exporter",
        "version" : "2.0"
    },
    "bufferViews" : [
        {
            "buffer" : 0,
            "byteLength" : 8160,
            "byteOffset" : 0,
            "target" : 34963
        },
        {
            "buffer" : 0,
            "byteLength" : 12708,
            "byteOffset" : 8160,
            "target" : 34962
        },
        {
            "buffer" : 0,
            "byteLength" : 12708,
            "byteOffset" : 20868,
            "target" : 34962
        },
        {
            "buffer" : 0,
            "byteLength" : 16944,
            "byteOffset" : 33576,
            "target" : 34962
        },
        {
            "buffer" : 0,
            "byteLength" : 8472,
            "byteOffset" : 50520,
            "target" : 34962
        },
        {
            "buffer" : 0,
            "byteLength" : 282,
            "byteOffset" : 58992,
            "target" : 34963
        },
        {
            "buffer" : 0,
            "byteLength" : 2688,
            "byteOffset" : 59276,
            "target" : 34962
        },
        {
            "buffer" : 0,
            "byteLength" : 2688,
            "byteOffset" : 61964,
            "target" : 34962
        },
        {
            "buffer" : 0,
            "byteLength" : 3584,
            "byteOffset" : 64652,
            "target" : 34962
        },
        {
            "buffer" : 0,
            "byteLength" : 1792,
            "byteOffset" : 68236,
            "target" : 34962
        },
        {
            "buffer" : 0,
            "byteLength" : 12480,
            "byteOffset" : 70028,
            "target" : 34963
        },
        {
            "buffer" : 0,
            "byteLength" : 17952,
            "byteOffset" : 82508,
            "target" : 34962
        },
        {
            "buffer" : 0,
            "byteLength" : 17952,
            "byteOffset" : 100460,
            "target" : 34962
        },
        {
            "buffer" : 0,
            "byteLength" : 23936,
            "byteOffset" : 118412,
            "target" : 34962
        },
        {
            "buffer" : 0,
            "byteLength" : 11968,
            "byteOffset" : 142348,
            "target" : 34962
        },
        {
            "buffer" : 0,
            "byteLength" : 8802,
            "byteOffset" : 154316,
            "target" : 34963
        },
        {
            "buffer" : 0,
            "byteLength" : 13956,
            "byteOffset" : 163120,
            "target" : 34962
        },
        {
            "buffer" : 0,
            "byteLength" : 13956,
            "byteOffset" : 177076,
            "target" : 34962
        },
        {
            "buffer" : 0,
            "byteLength" : 18608,
            "byteOffset" : 191032,
            "target" : 34962
        },
        {
            "buffer" : 0,
            "byteLength" : 9304,
            "byteOffset" : 209640,
            "target" : 34962
        },
        {
            "buffer" : 0,
            "byteLength" : 132,
            "byteOffset" : 218944,
            "target" : 34963
        },
        {
            "buffer" : 0,
            "byteLength" : 1056,
            "byteOffset" : 219076,
            "target" : 34962
        },
        {
            "buffer" : 0,
            "byteLength" : 1056,
            "byteOffset" : 220132,
            "target" : 34962
        },
        {
            "buffer" : 0,
            "byteLength" : 1408,
            "byteOffset" : 221188,
            "target" : 34962
        },
        {
            "buffer" : 0,
            "byteLength" : 704,
            "byteOffset" : 222596,
            "target" : 34962
        },
        {
            "buffer" : 0,
            "byteLength" : 276,
            "byteOffset" : 223300,
            "target" : 34963
        },
        {
            "buffer" : 0,
            "byteLength" : 2112,
            "byteOffset" : 223576,
            "target" : 34962
        },
        {
            "buffer" : 0,
            "byteLength" : 2112,
            "byteOffset" : 225688,
            "target" : 34962
        },
        {
            "buffer" : 0,
            "byteLength" : 2816,
            "byteOffset" : 227800,
            "target" : 34962
        },
        {
            "buffer" : 0,
            "byteLength" : 1408,
            "byteOffset" : 230616,
            "target" : 34962
        }
    ],
    "buffers" : [
        {
            "byteLength" : 232024,
            "uri" : "diamond.bin"
        }
    ],
    "images" : [
        {
            "name" : "PirateTreasureMapScroll_emissive",
            "uri" : "PirateTreasureMapScroll_emissive.jpg"
        },
        {
            "name" : "PirateTreasureMapScroll_diffuse",
            "uri" : "PirateTreasureMapScroll_diffuse.jpg"
        }
    ],
    "materials" : [
        {
            "emissiveFactor" : [
                1.0,
                1.0,
                1.0
            ],
            "emissiveTexture" : {
                "index" : 0
            },
            "name" : "map",
            "pbrMetallicRoughness" : {
                "baseColorTexture" : {
                    "index" : 1
                },
                "metallicFactor" : 0.0
            }
        }
    ],
    "meshes" : [
        {
            "name" : "Untitled.007",
            "primitives" : [
                {
                    "attributes" : {
                        "NORMAL" : 2,
                        "POSITION" : 1,
                        "TANGENT" : 3,
                        "TEXCOORD_0" : 4
                    },
                    "indices" : 0,
                    "material" : 0
                }
            ]
        },
        {
            "name" : "Untitled.008",
            "primitives" : [
                {
                    "attributes" : {
                        "NORMAL" : 7,
                        "POSITION" : 6,
                        "TANGENT" : 8,
                        "TEXCOORD_0" : 9
                    },
                    "indices" : 5
                }
            ]
        },
        {
            "name" : "Untitled.009",
            "primitives" : [
                {
                    "attributes" : {
                        "NORMAL" : 12,
                        "POSITION" : 11,
                        "TANGENT" : 13,
                        "TEXCOORD_0" : 14
                    },
                    "indices" : 10,
                    "material" : 0
                }
            ]
        },
        {
            "name" : "Untitled.010",
            "primitives" : [
                {
                    "attributes" : {
                        "NORMAL" : 17,
                        "POSITION" : 16,
                        "TANGENT" : 18,
                        "TEXCOORD_0" : 19
                    },
                    "indices" : 15,
                    "material" : 0
                }
            ]
        },
        {
            "name" : "Untitled.011",
            "primitives" : [
                {
                    "attributes" : {
                        "NORMAL" : 22,
                        "POSITION" : 21,
                        "TANGENT" : 23,
                        "TEXCOORD_0" : 24
                    },
                    "indices" : 20
                }
            ]
        },
        {
            "name" : "Untitled.006",
            "primitives" : [
                {
                    "attributes" : {
                        "NORMAL" : 27,
                        "POSITION" : 26,
                        "TANGENT" : 28,
                        "TEXCOORD_0" : 29
                    },
                    "indices" : 25
                }
            ]
        }
    ],
    "nodes" : [
        {
            "mesh" : 1,
            "name" : "diamond"
        },
        {
            "mesh" : 3,
            "name" : "map_1"
        },
        {
            "mesh" : 0,
            "name" : "map_2"
        },
        {
            "mesh" : 2,
            "name" : "map_3"
        },
        {
            "mesh" : 5,
            "name" : "pad"
        },
        {
            "mesh" : 4,
            "name" : "square"
        }
    ],
    "samplers" : [
        {}
    ],
    "scene" : 0,
    "scenes" : [
        {
            "name" : "Scene",
            "nodes" : [
                5,
                0,
                4,
                1,
                2,
                3
            ]
        }
    ],
    "textures" : [
        {
            "sampler" : 0,
            "source" : 0
        },
        {
            "sampler" : 0,
            "source" : 1
        }
    ]
}
