{"accessors":[{"name":"square-Mesh_positions","componentType":5126,"count":88,"min":[-2.0000932216644287,-2.0001180171966553,-0.8119336366653442],"max":[2.0000932216644287,2.0001180171966553,0.8119336366653442],"type":"VEC3","bufferView":0,"byteOffset":0},{"name":"square-Mesh_normals","componentType":5126,"count":88,"min":[-0.9999998211860657,-0.9999997019767761,-0.9999995231628418],"max":[0.9999998211860657,0.9999997019767761,0.9999995231628418],"type":"VEC3","bufferView":0,"byteOffset":5472},{"name":"square-Mesh_texcoords","componentType":5126,"count":88,"min":[0.0025819377042353153,0.002581954002380371],"max":[0.9974180459976196,0.5588467121124268],"type":"VEC2","bufferView":1,"byteOffset":0},{"name":"square-Mesh_0_indices","componentType":5123,"count":132,"min":[0],"max":[87],"type":"SCALAR","bufferView":2,"byteOffset":0},{"name":"diamond-Mesh_positions","componentType":5126,"count":192,"min":[-2.5180180072784424,-2.044604778289795,-2.518017292022705],"max":[2.5180180072784424,2.044604778289795,2.518017292022705],"type":"VEC3","bufferView":0,"byteOffset":1056},{"name":"diamond-Mesh_normals","componentType":5126,"count":192,"min":[-0.8104495406150818,-0.64069002866745,-0.8099690675735474],"max":[0.8104495406150818,0.9999999403953552,0.8109294772148132],"type":"VEC3","bufferView":0,"byteOffset":6528},{"name":"diamond-Mesh_texcoords","componentType":5126,"count":192,"min":[0.0024788579903542995,0.0024788379669189453],"max":[0.997521162033081,0.5007206201553345],"type":"VEC2","bufferView":1,"byteOffset":704},{"name":"diamond-Mesh_0_indices","componentType":5123,"count":240,"min":[0],"max":[191],"type":"SCALAR","bufferView":2,"byteOffset":264},{"name":"pad-Mesh_positions","componentType":5126,"count":176,"min":[-2.491281032562256,-2.507462739944458,-0.9736182689666748],"max":[2.491281032562256,2.507462739944458,0.9736182689666748],"type":"VEC3","bufferView":0,"byteOffset":3360},{"name":"pad-Mesh_normals","componentType":5126,"count":176,"min":[-0.9999998807907104,-0.9999996423721313,-0.9999995231628418],"max":[0.9999998807907104,0.9999996423721313,0.9999995231628418],"type":"VEC3","bufferView":0,"byteOffset":8832},{"name":"pad-Mesh_texcoords","componentType":5126,"count":176,"min":[0.004441078752279282,0.00444108247756958],"max":[0.9955589175224304,0.9369741678237915],"type":"VEC2","bufferView":1,"byteOffset":2240},{"name":"pad-Mesh_0_indices","componentType":5123,"count":276,"min":[0],"max":[175],"type":"SCALAR","bufferView":2,"byteOffset":744}],"asset":{"generator":"obj2gltf","version":"2.0"},"buffers":[{"name":"input","byteLength":15888,"uri":"data:application/octet-stream;base64,"}],"bufferViews":[{"name":"bufferView_0","buffer":0,"byteLength":10944,"byteOffset":0,"byteStride":12,"target":34962},{"name":"bufferView_1","buffer":0,"byteLength":3648,"byteOffset":10944,"byteStride":8,"target":34962},{"name":"bufferView_2","buffer":0,"byteLength":1296,"byteOffset":14592,"target":34963}],"materials":[{"name":"default","pbrMetallicRoughness":{"baseColorFactor":[0.5,0.5,0.5,1],"metallicFactor":0,"roughnessFactor":1},"emissiveFactor":[0,0,0],"alphaMode":"OPAQUE","doubleSided":false}],"meshes":[{"name":"square-Mesh","primitives":[{"attributes":{"POSITION":0,"NORMAL":1,"TEXCOORD_0":2},"indices":3,"material":0,"mode":4}]},{"name":"diamond-Mesh","primitives":[{"attributes":{"POSITION":4,"NORMAL":5,"TEXCOORD_0":6},"indices":7,"material":0,"mode":4}]},{"name":"pad-Mesh","primitives":[{"attributes":{"POSITION":8,"NORMAL":9,"TEXCOORD_0":10},"indices":11,"material":0,"mode":4}]}],"nodes":[{"name":"square","mesh":0},{"name":"diamond","mesh":1},{"name":"pad","mesh":2}],"scene":0,"scenes":[{"nodes":[0,1,2]}]}
