{
    "accessors" : [
        {
            "bufferView" : 0,
            "componentType" : 5123,
            "count" : 4254,
            "max" : [
                1005
            ],
            "min" : [
                0
            ],
            "type" : "SCALAR"
        },
        {
            "bufferView" : 1,
            "componentType" : 5126,
            "count" : 1006,
            "max" : [
                0.5484722852706909,
                2.356929302215576,
                0.9062451720237732
            ],
            "min" : [
                -1.9032388925552368,
                -1.3007776737213135,
                0.13829047977924347
            ],
            "type" : "VEC3"
        },
        {
            "bufferView" : 2,
            "componentType" : 5126,
            "count" : 1006,
            "max" : [
                0.9804986715316772,
                0.9986876845359802,
                0.999969482421875
            ],
            "min" : [
                -0.999969482421875,
                -0.9979247450828552,
                -0.999969482421875
            ],
            "type" : "VEC3"
        },
        {
            "bufferView" : 3,
            "componentType" : 5126,
            "count" : 1006,
            "max" : [
                0.8130887746810913,
                0.9989523887634277
            ],
            "min" : [
                0.0010475680464878678,
                0.0010475516319274902
            ],
            "type" : "VEC2"
        },
        {
            "bufferView" : 4,
            "componentType" : 5123,
            "count" : 4014,
            "max" : [
                948
            ],
            "min" : [
                0
            ],
            "type" : "SCALAR"
        },
        {
            "bufferView" : 5,
            "componentType" : 5126,
            "count" : 949,
            "max" : [
                1.9265389442443848,
                2.3587028980255127,
                0.9515479803085327
            ],
            "min" : [
                -0.34208250045776367,
                -1.6218394041061401,
                0.12816587090492249
            ],
            "type" : "VEC3"
        },
        {
            "bufferView" : 6,
            "componentType" : 5126,
            "count" : 949,
            "max" : [
                0.999969482421875,
                0.9993896484375,
                0.999908447265625
            ],
            "min" : [
                -0.9804986715316772,
                -0.9987792372703552,
                -0.999908447265625
            ],
            "type" : "VEC3"
        },
        {
            "bufferView" : 7,
            "componentType" : 5126,
            "count" : 949,
            "max" : [
                0.9908000230789185,
                0.9193383455276489
            ],
            "min" : [
                0.009499999694526196,
                0.02869999408721924
            ],
            "type" : "VEC2"
        },
        {
            "bufferView" : 8,
            "componentType" : 5121,
            "count" : 276,
            "max" : [
                175
            ],
            "min" : [
                0
            ],
            "type" : "SCALAR"
        },
        {
            "bufferView" : 9,
            "componentType" : 5126,
            "count" : 176,
            "max" : [
                2.144526243209839,
                2.1584556102752686,
                0.8381029367446899
            ],
            "min" : [
                -2.144526243209839,
                -2.1584556102752686,
                -0.8381029367446899
            ],
            "type" : "VEC3"
        },
        {
            "bufferView" : 10,
            "componentType" : 5126,
            "count" : 176,
            "max" : [
                0.999969482421875,
                0.999969482421875,
                0.999969482421875
            ],
            "min" : [
                -0.999969482421875,
                -0.999969482421875,
                -0.999969482421875
            ],
            "type" : "VEC3"
        },
        {
            "bufferView" : 11,
            "componentType" : 5126,
            "count" : 176,
            "max" : [
                0.9955589175224304,
                0.9369741678237915
            ],
            "min" : [
                0.004441078752279282,
                0.00444108247756958
            ],
            "type" : "VEC2"
        },
        {
            "bufferView" : 12,
            "componentType" : 5121,
            "count" : 132,
            "max" : [
                87
            ],
            "min" : [
                0
            ],
            "type" : "SCALAR"
        },
        {
            "bufferView" : 13,
            "componentType" : 5126,
            "count" : 88,
            "max" : [
                2.0000932216644287,
                2.0001180171966553,
                0.8119336366653442
            ],
            "min" : [
                -2.0000932216644287,
                -2.0001180171966553,
                -0.8119336366653442
            ],
            "type" : "VEC3"
        },
        {
            "bufferView" : 14,
            "componentType" : 5126,
            "count" : 88,
            "max" : [
                0.999969482421875,
                0.999969482421875,
                0.999969482421875
            ],
            "min" : [
                -0.999969482421875,
                -0.999969482421875,
                -0.999969482421875
            ],
            "type" : "VEC3"
        },
        {
            "bufferView" : 15,
            "componentType" : 5126,
            "count" : 88,
            "max" : [
                0.9974180459976196,
                0.5588467121124268
            ],
            "min" : [
                0.0025819377042353153,
                0.002581954002380371
            ],
            "type" : "VEC2"
        },
        {
            "bufferView" : 16,
            "componentType" : 5121,
            "count" : 282,
            "max" : [
                223
            ],
            "min" : [
                0
            ],
            "type" : "SCALAR"
        },
        {
            "bufferView" : 17,
            "componentType" : 5126,
            "count" : 224,
            "max" : [
                2.2897441387176514,
                1.8266818523406982,
                2.289743423461914
            ],
            "min" : [
                -2.2897441387176514,
                -2.0027079582214355,
                -2.289743423461914
            ],
            "type" : "VEC3"
        },
        {
            "bufferView" : 18,
            "componentType" : 5126,
            "count" : 224,
            "max" : [
                0.8801843523979187,
                0.999969482421875,
                0.8808252215385437
            ],
            "min" : [
                -0.8801843523979187,
                -0.6157414317131042,
                -0.8795739412307739
            ],
            "type" : "VEC3"
        },
        {
            "bufferView" : 19,
            "componentType" : 5126,
            "count" : 224,
            "max" : [
                0.9975219368934631,
                0.5005598068237305
            ],
            "min" : [
                0.002478065900504589,
                0.0024780631065368652
            ],
            "type" : "VEC2"
        },
        {
            "bufferView" : 20,
            "componentType" : 5123,
            "count" : 6210,
            "max" : [
                1375
            ],
            "min" : [
                0
            ],
            "type" : "SCALAR"
        },
        {
            "bufferView" : 21,
            "componentType" : 5126,
            "count" : 1376,
            "max" : [
                1.9097715616226196,
                -0.03254246711730957,
                1.0017517805099487
            ],
            "min" : [
                -1.9012397527694702,
                -2.396702766418457,
                0.1740168035030365
            ],
            "type" : "VEC3"
        },
        {
            "bufferView" : 22,
            "componentType" : 5126,
            "count" : 1376,
            "max" : [
                0.9998779296875,
                0.999267578125,
                0.99993896484375
            ],
            "min" : [
                -0.99993896484375,
                -0.999267578125,
                -0.999969482421875
            ],
            "type" : "VEC3"
        },
        {
            "bufferView" : 23,
            "componentType" : 5126,
            "count" : 1376,
            "max" : [
                0.9951000213623047,
                0.9902999401092529
            ],
            "min" : [
                0.017899999395012856,
                0.36904382705688477
            ],
            "type" : "VEC2"
        }
    ],
    "asset" : {
        "generator" : "Khronos Blender glTF 2.0 exporter",
        "version" : "2.0"
    },
    "bufferViews" : [
        {
            "buffer" : 0,
            "byteLength" : 8508,
            "byteOffset" : 0,
            "target" : 34963
        },
        {
            "buffer" : 0,
            "byteLength" : 12072,
            "byteOffset" : 8508,
            "target" : 34962
        },
        {
            "buffer" : 0,
            "byteLength" : 12072,
            "byteOffset" : 20580,
            "target" : 34962
        },
        {
            "buffer" : 0,
            "byteLength" : 8048,
            "byteOffset" : 32652,
            "target" : 34962
        },
        {
            "buffer" : 0,
            "byteLength" : 8028,
            "byteOffset" : 40700,
            "target" : 34963
        },
        {
            "buffer" : 0,
            "byteLength" : 11388,
            "byteOffset" : 48728,
            "target" : 34962
        },
        {
            "buffer" : 0,
            "byteLength" : 11388,
            "byteOffset" : 60116,
            "target" : 34962
        },
        {
            "buffer" : 0,
            "byteLength" : 7592,
            "byteOffset" : 71504,
            "target" : 34962
        },
        {
            "buffer" : 0,
            "byteLength" : 276,
            "byteOffset" : 79096,
            "target" : 34963
        },
        {
            "buffer" : 0,
            "byteLength" : 2112,
            "byteOffset" : 79372,
            "target" : 34962
        },
        {
            "buffer" : 0,
            "byteLength" : 2112,
            "byteOffset" : 81484,
            "target" : 34962
        },
        {
            "buffer" : 0,
            "byteLength" : 1408,
            "byteOffset" : 83596,
            "target" : 34962
        },
        {
            "buffer" : 0,
            "byteLength" : 132,
            "byteOffset" : 85004,
            "target" : 34963
        },
        {
            "buffer" : 0,
            "byteLength" : 1056,
            "byteOffset" : 85136,
            "target" : 34962
        },
        {
            "buffer" : 0,
            "byteLength" : 1056,
            "byteOffset" : 86192,
            "target" : 34962
        },
        {
            "buffer" : 0,
            "byteLength" : 704,
            "byteOffset" : 87248,
            "target" : 34962
        },
        {
            "buffer" : 0,
            "byteLength" : 282,
            "byteOffset" : 87952,
            "target" : 34963
        },
        {
            "buffer" : 0,
            "byteLength" : 2688,
            "byteOffset" : 88236,
            "target" : 34962
        },
        {
            "buffer" : 0,
            "byteLength" : 2688,
            "byteOffset" : 90924,
            "target" : 34962
        },
        {
            "buffer" : 0,
            "byteLength" : 1792,
            "byteOffset" : 93612,
            "target" : 34962
        },
        {
            "buffer" : 0,
            "byteLength" : 12420,
            "byteOffset" : 95404,
            "target" : 34963
        },
        {
            "buffer" : 0,
            "byteLength" : 16512,
            "byteOffset" : 107824,
            "target" : 34962
        },
        {
            "buffer" : 0,
            "byteLength" : 16512,
            "byteOffset" : 124336,
            "target" : 34962
        },
        {
            "buffer" : 0,
            "byteLength" : 11008,
            "byteOffset" : 140848,
            "target" : 34962
        }
    ],
    "buffers" : [
        {
            "byteLength" : 151856,
            "uri" : "diamond.bin"
        }
    ],
    "images" : [
        {
            "name" : "PirateTreasureMapScroll_emissive",
            "uri" : "PirateTreasureMapScroll_emissive.jpg"
        },
        {
            "name" : "PirateTreasureMapScroll_diffuse",
            "uri" : "PirateTreasureMapScroll_diffuse.jpg"
        }
    ],
    "materials" : [
        {
            "emissiveFactor" : [
                1.0,
                1.0,
                1.0
            ],
            "emissiveTexture" : {
                "index" : 0
            },
            "name" : "map",
            "pbrMetallicRoughness" : {
                "baseColorTexture" : {
                    "index" : 1
                },
                "metallicFactor" : 0.0
            }
        }
    ],
    "meshes" : [
        {
            "name" : "Untitled.010",
            "primitives" : [
                {
                    "attributes" : {
                        "NORMAL" : 2,
                        "POSITION" : 1,
                        "TEXCOORD_0" : 3
                    },
                    "indices" : 0,
                    "material" : 0
                }
            ]
        },
        {
            "name" : "Untitled.006",
            "primitives" : [
                {
                    "attributes" : {
                        "NORMAL" : 6,
                        "POSITION" : 5,
                        "TEXCOORD_0" : 7
                    },
                    "indices" : 4,
                    "material" : 0
                }
            ]
        },
        {
            "name" : "Untitled.009",
            "primitives" : [
                {
                    "attributes" : {
                        "NORMAL" : 10,
                        "POSITION" : 9,
                        "TEXCOORD_0" : 11
                    },
                    "indices" : 8
                }
            ]
        },
        {
            "name" : "Untitled.007",
            "primitives" : [
                {
                    "attributes" : {
                        "NORMAL" : 14,
                        "POSITION" : 13,
                        "TEXCOORD_0" : 15
                    },
                    "indices" : 12
                }
            ]
        },
        {
            "name" : "Untitled.008",
            "primitives" : [
                {
                    "attributes" : {
                        "NORMAL" : 18,
                        "POSITION" : 17,
                        "TEXCOORD_0" : 19
                    },
                    "indices" : 16
                }
            ]
        },
        {
            "name" : "Untitled.011",
            "primitives" : [
                {
                    "attributes" : {
                        "NORMAL" : 22,
                        "POSITION" : 21,
                        "TEXCOORD_0" : 23
                    },
                    "indices" : 20,
                    "material" : 0
                }
            ]
        }
    ],
    "nodes" : [
        {
            "mesh" : 4,
            "name" : "diamond"
        },
        {
            "mesh" : 0,
            "name" : "map_1",
            "translation" : [
                0.0,
                0.0,
                -0.1022128239274025
            ]
        },
        {
            "mesh" : 1,
            "name" : "map_2",
            "translation" : [
                0.0,
                0.0,
                -0.1022128239274025
            ]
        },
        {
            "mesh" : 5,
            "name" : "map_3",
            "translation" : [
                0.0,
                0.0,
                -0.1022128239274025
            ]
        },
        {
            "mesh" : 2,
            "name" : "pad"
        },
        {
            "mesh" : 3,
            "name" : "square"
        }
    ],
    "samplers" : [
        {}
    ],
    "scene" : 0,
    "scenes" : [
        {
            "name" : "Scene",
            "nodes" : [
                5,
                0,
                4,
                3,
                2,
                1
            ]
        }
    ],
    "textures" : [
        {
            "sampler" : 0,
            "source" : 0
        },
        {
            "sampler" : 0,
            "source" : 1
        }
    ]
}
